<?xml version="1.0" encoding="utf-8"?>
<!-- Generator: Adobe Illustrator 24.0.1, SVG Export Plug-In . SVG Version: 6.00 Build 0)  -->
<svg version="1.1" id="Layer_1" xmlns="http://www.w3.org/2000/svg" xmlns:xlink="http://www.w3.org/1999/xlink" x="0px" y="0px"
	 viewBox="0 0 91.5 15.7" style="enable-background:new 0 0 91.5 15.7;" xml:space="preserve">
<style type="text/css">
	.st0{enable-background:new    ;}
</style>
<title>18 months emi</title>
<g id="Layer_2_1_">
	<g id="Layer_2-2">
		<g class="st0">
			<path d="M1.3,12.7V6.3H0.4V5h2.4v7.7H1.3z"/>
			<path d="M6.6,12.7c-0.9,0-1.6-0.2-2-0.6c-0.5-0.4-0.7-1-0.7-1.8c0-0.4,0.1-0.8,0.2-1.1c0.2-0.3,0.4-0.6,0.7-0.8
				C4.6,8.3,4.4,8.1,4.3,7.9C4.2,7.6,4.1,7.3,4.1,7c0-0.3,0.1-0.6,0.2-0.9s0.3-0.5,0.5-0.7C5,5.3,5.3,5.2,5.6,5.1
				c0.3-0.1,0.7-0.2,1-0.2c0.4,0,0.7,0,1,0.2s0.6,0.2,0.8,0.4C8.7,5.7,8.9,5.9,9,6.2C9.1,6.4,9.2,6.7,9.2,7c0,0.3-0.1,0.6-0.2,0.8
				C8.8,8.1,8.7,8.3,8.4,8.5C8.7,8.7,9,8.9,9.1,9.2c0.2,0.3,0.2,0.6,0.2,1c0,0.7-0.2,1.3-0.7,1.8C8.2,12.5,7.5,12.7,6.6,12.7z
				 M6.6,11.4c0.5,0,0.8-0.1,1-0.3S8,10.6,8,10.3C8,10,7.9,9.7,7.7,9.5s-0.6-0.3-1-0.3c-0.5,0-0.8,0.1-1,0.3S5.3,10,5.3,10.3
				c0,0.3,0.1,0.6,0.3,0.8S6.1,11.4,6.6,11.4z M6.6,7.9c0.4,0,0.7-0.1,0.9-0.3c0.2-0.2,0.3-0.4,0.3-0.6c0-0.2-0.1-0.5-0.3-0.6
				C7.3,6.3,7.1,6.2,6.7,6.2C6.3,6.2,6,6.3,5.8,6.4C5.6,6.6,5.4,6.8,5.4,7.1c0,0.2,0.1,0.5,0.3,0.6C5.9,7.9,6.2,7.9,6.6,7.9z"/>
			<path d="M12.7,6.5h1.4v0.8c0.2-0.3,0.4-0.4,0.7-0.6c0.3-0.1,0.6-0.2,1-0.2c0.5,0,0.9,0.1,1.2,0.3c0.3,0.2,0.6,0.4,0.8,0.8
				c0.2-0.3,0.5-0.6,0.8-0.8s0.7-0.3,1.2-0.3c0.8,0,1.5,0.2,1.9,0.7c0.4,0.5,0.6,1.1,0.6,1.9v3.7H21V9.2c0-0.4-0.1-0.8-0.3-1.1
				c-0.2-0.3-0.6-0.4-1-0.4c-0.4,0-0.7,0.1-1,0.4c-0.3,0.3-0.4,0.7-0.4,1.2v3.4h-1.5V9.1c0-0.4-0.1-0.8-0.3-1
				c-0.2-0.2-0.5-0.4-1-0.4c-0.4,0-0.7,0.1-1,0.4c-0.3,0.3-0.4,0.7-0.4,1.2v3.4h-1.4V6.5z"/>
			<path d="M26.3,12.7c-0.4,0-0.9-0.1-1.3-0.2c-0.4-0.2-0.7-0.4-1-0.7s-0.5-0.6-0.7-1c-0.2-0.4-0.2-0.8-0.2-1.2
				c0-0.4,0.1-0.8,0.2-1.2c0.2-0.4,0.4-0.7,0.7-1c0.3-0.3,0.6-0.5,1-0.7c0.4-0.2,0.8-0.2,1.3-0.2s0.9,0.1,1.3,0.2
				c0.4,0.2,0.7,0.4,1,0.7c0.3,0.3,0.5,0.6,0.7,1c0.2,0.4,0.2,0.8,0.2,1.2c0,0.4-0.1,0.8-0.2,1.2s-0.4,0.7-0.7,1s-0.6,0.5-1,0.7
				C27.2,12.6,26.8,12.7,26.3,12.7z M26.3,11.4c0.3,0,0.5,0,0.7-0.1s0.4-0.2,0.6-0.4c0.2-0.2,0.3-0.3,0.4-0.6s0.1-0.4,0.1-0.7
				c0-0.2,0-0.5-0.1-0.7c-0.1-0.2-0.2-0.4-0.4-0.6C27.4,8.2,27.2,8.1,27,8s-0.5-0.1-0.7-0.1c-0.3,0-0.5,0-0.7,0.1
				c-0.2,0.1-0.4,0.2-0.6,0.4c-0.2,0.2-0.3,0.3-0.4,0.6c-0.1,0.2-0.1,0.4-0.1,0.7c0,0.2,0,0.5,0.1,0.7s0.2,0.4,0.4,0.6
				c0.2,0.2,0.3,0.3,0.6,0.4C25.8,11.3,26.1,11.4,26.3,11.4z"/>
			<path d="M30.1,6.5h1.4v0.8c0.2-0.3,0.5-0.5,0.8-0.6c0.3-0.2,0.7-0.2,1.1-0.2c0.8,0,1.4,0.2,1.8,0.7c0.4,0.5,0.7,1.1,0.7,1.9v3.6
				h-1.5V9.2c0-0.5-0.1-0.8-0.3-1.1s-0.6-0.4-1-0.4c-0.4,0-0.8,0.1-1,0.4c-0.3,0.3-0.4,0.7-0.4,1.2v3.3h-1.4V6.5z"/>
			<path d="M36.2,6.5h1.1V5.6l1.4-1v1.9H40v1.3h-1.3v2.3c0,0.3,0,0.5,0,0.7c0,0.2,0.1,0.3,0.2,0.4c0.1,0.1,0.2,0.1,0.4,0.2
				c0.2,0,0.4,0,0.7,0v1.3h-0.2c-0.5,0-0.9,0-1.2-0.1s-0.6-0.2-0.8-0.4c-0.2-0.2-0.3-0.5-0.4-0.8c-0.1-0.3-0.1-0.7-0.1-1.2V7.8h-1.1
				V6.5z"/>
			<path d="M40.7,4.9h1.4v2.5c0.2-0.3,0.5-0.5,0.8-0.6c0.3-0.2,0.7-0.2,1.1-0.2c0.8,0,1.4,0.2,1.8,0.7c0.4,0.5,0.7,1.1,0.7,1.9v3.6
				h-1.5V9.3c0-0.5-0.1-0.9-0.3-1.1s-0.6-0.4-1-0.4c-0.2,0-0.4,0-0.6,0.1c-0.2,0.1-0.3,0.2-0.5,0.3c-0.1,0.1-0.2,0.3-0.3,0.5
				c-0.1,0.2-0.1,0.4-0.1,0.7v3.3h-1.4V4.9z"/>
			<path d="M49.5,12.7c-0.7,0-1.3-0.1-1.7-0.4c-0.5-0.3-0.8-0.6-1-1.1l1.3-0.6c0.1,0.3,0.3,0.5,0.6,0.6c0.3,0.1,0.5,0.2,0.9,0.2
				c0.4,0,0.6-0.1,0.8-0.2c0.2-0.1,0.3-0.3,0.3-0.5c0-0.1,0-0.2-0.1-0.3c-0.1-0.1-0.2-0.1-0.3-0.2c-0.1,0-0.3-0.1-0.5-0.1
				c-0.2,0-0.4-0.1-0.6-0.1C49,10,48.7,10,48.4,9.9s-0.5-0.2-0.7-0.3c-0.2-0.1-0.4-0.3-0.5-0.5c-0.1-0.2-0.2-0.5-0.2-0.8
				c0-0.2,0.1-0.5,0.2-0.7s0.3-0.4,0.5-0.6c0.2-0.2,0.5-0.3,0.8-0.4c0.3-0.1,0.6-0.1,1-0.1c0.6,0,1.1,0.1,1.6,0.3
				c0.4,0.2,0.7,0.5,1,0.9l-1.2,0.6c-0.1-0.2-0.3-0.4-0.5-0.5c-0.2-0.1-0.5-0.2-0.8-0.2c-0.3,0-0.6,0.1-0.8,0.2
				c-0.2,0.1-0.2,0.3-0.2,0.4c0,0.2,0.1,0.3,0.4,0.4c0.2,0.1,0.6,0.2,1.1,0.3c0.3,0,0.5,0.1,0.8,0.2s0.5,0.2,0.7,0.3
				c0.2,0.1,0.4,0.3,0.5,0.5c0.1,0.2,0.2,0.5,0.2,0.8c0,0.2,0,0.4-0.1,0.7c-0.1,0.2-0.3,0.4-0.5,0.6c-0.2,0.2-0.5,0.3-0.8,0.5
				C50.4,12.6,50,12.7,49.5,12.7z"/>
			<path d="M58,12.7c-0.4,0-0.8-0.1-1.1-0.2c-0.3-0.1-0.6-0.3-0.8-0.5c-0.2-0.2-0.4-0.5-0.5-0.8c-0.1-0.3-0.2-0.6-0.2-1V7.5
				c0-0.4,0.1-0.7,0.2-1s0.3-0.6,0.5-0.8c0.2-0.2,0.5-0.4,0.8-0.5C57.3,5,57.6,4.9,58,4.9c0.4,0,0.8,0.1,1.1,0.2s0.6,0.3,0.8,0.5
				c0.2,0.2,0.4,0.5,0.5,0.8s0.2,0.6,0.2,1v2.8c0,0.4-0.1,0.7-0.2,1c-0.1,0.3-0.3,0.6-0.5,0.8c-0.2,0.2-0.5,0.4-0.8,0.5
				C58.8,12.6,58.4,12.7,58,12.7z M58,11.3c0.4,0,0.7-0.1,0.9-0.3c0.2-0.2,0.3-0.5,0.3-0.8V7.5c0-0.4-0.1-0.6-0.3-0.8
				S58.4,6.4,58,6.4c-0.4,0-0.7,0.1-0.9,0.3c-0.2,0.2-0.3,0.5-0.3,0.8v2.6c0,0.3,0.1,0.6,0.3,0.8C57.3,11.2,57.6,11.3,58,11.3z"/>
			<path d="M67.9,5h1.8l-6.6,7.7h-1.8L67.9,5z M61.3,6.7c0-0.2,0-0.5,0.1-0.7s0.2-0.4,0.4-0.6c0.2-0.2,0.4-0.3,0.6-0.4
				C62.7,5,63,4.9,63.2,4.9s0.5,0,0.7,0.1c0.2,0.1,0.4,0.2,0.6,0.4C64.7,5.6,64.9,5.8,65,6c0.1,0.2,0.1,0.4,0.1,0.7
				c0,0.2,0,0.5-0.1,0.7c-0.1,0.2-0.2,0.4-0.4,0.6c-0.2,0.2-0.4,0.3-0.6,0.4c-0.2,0.1-0.5,0.1-0.7,0.1s-0.5,0-0.7-0.1
				c-0.2-0.1-0.4-0.2-0.6-0.4c-0.2-0.2-0.3-0.4-0.4-0.6S61.3,7,61.3,6.7z M62.6,6.7c0,0.2,0.1,0.3,0.2,0.4c0.1,0.1,0.3,0.2,0.5,0.2
				s0.3-0.1,0.5-0.2c0.1-0.1,0.2-0.3,0.2-0.4c0-0.2-0.1-0.3-0.2-0.4c-0.1-0.1-0.3-0.2-0.5-0.2s-0.3,0.1-0.5,0.2
				C62.6,6.4,62.6,6.6,62.6,6.7z M65.8,10.8c0-0.3,0-0.5,0.1-0.7s0.2-0.4,0.4-0.6c0.2-0.2,0.4-0.3,0.6-0.4c0.2-0.1,0.5-0.1,0.7-0.1
				s0.5,0,0.7,0.1c0.2,0.1,0.4,0.2,0.6,0.4c0.2,0.2,0.3,0.4,0.4,0.6c0.1,0.2,0.1,0.5,0.1,0.7c0,0.3,0,0.5-0.1,0.7
				c-0.1,0.2-0.2,0.4-0.4,0.6c-0.2,0.2-0.4,0.3-0.6,0.4c-0.2,0.1-0.5,0.1-0.7,0.1s-0.5,0-0.7-0.1c-0.2-0.1-0.4-0.2-0.6-0.4
				c-0.2-0.2-0.3-0.4-0.4-0.6C65.9,11.3,65.8,11.1,65.8,10.8z M67,10.8c0,0.2,0.1,0.4,0.2,0.5c0.1,0.1,0.3,0.2,0.5,0.2
				c0.2,0,0.3-0.1,0.5-0.2c0.1-0.1,0.2-0.3,0.2-0.5c0-0.2-0.1-0.3-0.2-0.5s-0.3-0.2-0.5-0.2c-0.2,0-0.4,0.1-0.5,0.2
				C67.1,10.5,67,10.6,67,10.8z"/>
			<path d="M72.9,5h4.6v1.4h-3.1v1.8h3.1v1.4h-3.1v1.8h3.1v1.4h-4.6V5z"/>
			<path d="M78.3,5h1.4l2.3,3.3L84.5,5h1.4v7.7h-1.4V7.3L82,10.5l-2.3-3.1v5.4h-1.4V5z"/>
			<path d="M86.8,5h1.4v7.7h-1.4V5z"/>
		</g>
		<g class="st0">
			<path d="M90.5,6.1l0.1,0.7h-0.7L90,6.2l-0.5,0.5L89.1,6l0.7-0.2l-0.7-0.2l0.4-0.6L90,5.4l-0.1-0.7h0.7l-0.1,0.7L91,4.9l0.4,0.6
				l-0.7,0.2L91.4,6L91,6.6L90.5,6.1z"/>
		</g>
	</g>
</g>
</svg>
