<?xml version="1.0" encoding="utf-8"?>
<!-- Generator: Adobe Illustrator 24.0.2, SVG Export Plug-In . SVG Version: 6.00 Build 0)  -->
<svg version="1.1" id="Layer_1" xmlns="http://www.w3.org/2000/svg" xmlns:xlink="http://www.w3.org/1999/xlink" x="0px" y="0px"
	 viewBox="0 0 400 100" style="enable-background:new 0 0 400 100;" xml:space="preserve">
<style type="text/css">
	.st0{fill:#FFFFFF;}
</style>
<path d="M379.3,96.8H19.7c-8,0-14.6-6.5-14.6-14.6v-64c0-8,6.5-14.6,14.6-14.6h359.6c8,0,14.6,6.5,14.6,14.6v64
	C393.8,90.3,387.3,96.8,379.3,96.8z"/>
<g>
	<path class="st0" d="M55.9,16.1h15.8c5.5,0,9.8,1.2,12.8,3.6C87.5,22,89,25.5,89,30c0,4.3-1.8,7.6-5.5,9.7c2.3,1,4.1,2.6,5.4,4.5
		c1.2,1.9,1.9,4.2,1.9,7.1c0,4.9-1.6,8.6-4.8,11.1c-3.3,2.4-7.7,3.6-13.1,3.6h-17V16.1z M65.2,24.6V36h6.4c3,0,5-0.5,6.2-1.6
		s1.8-2.6,1.8-4.3c0-1.9-0.6-3.2-1.8-4.1c-1.2-0.9-3.3-1.3-6.1-1.3L65.2,24.6L65.2,24.6z M65.2,44.7v12.8h7.7c2.8,0,5-0.6,6.4-1.7
		c1.5-1.1,2.2-2.7,2.2-4.7c0-2-0.7-3.6-1.9-4.7c-1.2-1.1-3.6-1.6-7.1-1.6H65.2z"/>
	<path class="st0" d="M130.9,66h-9.1v-5c-1.2,1.6-2.8,2.8-4.8,3.7c-1.9,0.9-4.2,1.3-6.7,1.3c-4.7,0-8.5-1.5-11.2-4.5
		c-2.8-2.9-4.2-7.1-4.2-12.3V26h9.3v22.3c0,3.1,0.7,5.4,2.1,7.2c1.4,1.8,3.6,2.6,6.5,2.6c2.6,0,4.7-0.9,6.3-2.8
		c1.7-1.8,2.6-4.5,2.6-7.9V26h9.2V66z"/>
	<path class="st0" d="M150.4,64.3L133.9,26h9.9L155,53.4L165.5,26h9.7l-23.9,58.4H142L150.4,64.3z"/>
	<path class="st0" d="M195.2,26h9.2v5.5c1.3-1.7,3-3,5-4c2-1,4.3-1.5,6.9-1.5c5,0,8.8,1.5,11.7,4.5c2.8,2.9,4.2,7.1,4.2,12.3V66
		h-9.5V43.8c0-3-0.7-5.4-2.3-7.2c-1.5-1.8-3.8-2.6-6.8-2.6c-2.6,0-4.9,0.9-6.6,2.8c-1.8,1.8-2.7,4.5-2.7,7.9v21.5h-9.2L195.2,26
		L195.2,26z"/>
	<path class="st0" d="M257,66.1c-2.8,0-5.5-0.5-8.1-1.5c-2.6-1-4.7-2.5-6.6-4.3c-1.9-1.8-3.4-3.9-4.4-6.4c-1.1-2.4-1.6-5-1.6-7.8
		c0-2.8,0.5-5.5,1.6-7.9c1.1-2.4,2.6-4.6,4.4-6.4c1.9-1.8,4.1-3.3,6.6-4.3c2.6-1,5.3-1.5,8.1-1.5c2.8,0,5.5,0.5,8.1,1.5
		c2.5,1,4.7,2.5,6.6,4.3c1.9,1.8,3.4,3.9,4.5,6.4c1.1,2.4,1.6,5,1.6,7.9c0,2.8-0.5,5.4-1.6,7.8c-1.1,2.4-2.6,4.6-4.5,6.4
		s-4.1,3.3-6.6,4.3C262.5,65.6,259.8,66.1,257,66.1z M257,57.4c1.6,0,3.1-0.3,4.6-0.9c1.4-0.6,2.6-1.4,3.7-2.4c1-1,1.9-2.3,2.5-3.6
		c0.6-1.4,0.9-2.8,0.9-4.4c0-1.6-0.3-3.1-0.9-4.5c-0.6-1.4-1.4-2.6-2.5-3.6c-1-1-2.3-1.8-3.7-2.4c-1.4-0.6-2.9-0.9-4.6-0.9
		c-1.6,0-3.2,0.3-4.6,0.9c-1.5,0.6-2.7,1.4-3.7,2.4s-1.8,2.3-2.4,3.6s-0.9,2.8-0.9,4.5c0,1.5,0.3,3,0.9,4.4c0.6,1.4,1.4,2.6,2.4,3.6
		c1,1,2.3,1.8,3.7,2.4C253.8,57.1,255.4,57.4,257,57.4z"/>
	<path class="st0" d="M277.2,26h9.4l8.8,27.6L305.5,26h9.2l9.9,27.7l9.2-27.7h9.3l-14,40h-8.9L310,38.4L299.7,66h-9.1L277.2,26z"/>
</g>
</svg>
