<?xml version="1.0" encoding="utf-8"?>
<!-- Generator: Adobe Illustrator 24.0.1, SVG Export Plug-In . SVG Version: 6.00 Build 0)  -->
<svg version="1.1" id="Layer_1" xmlns="http://www.w3.org/2000/svg" xmlns:xlink="http://www.w3.org/1999/xlink" x="0px" y="0px"
	 viewBox="0 0 126.1 28.5" style="enable-background:new 0 0 126.1 28.5;" xml:space="preserve">
<style type="text/css">
	.st0{enable-background:new    ;}
</style>
<title>own now and enjoy</title>
<g id="Layer_2_1_">
	<g id="Layer_2-2">
		<g class="st0">
			<path d="M25.7,10.2c-0.6,0-1.2-0.1-1.7-0.3c-0.5-0.2-1-0.5-1.4-0.9c-0.4-0.4-0.7-0.8-0.9-1.4c-0.2-0.5-0.3-1.1-0.3-1.7
				s0.1-1.2,0.3-1.7c0.2-0.5,0.5-1,0.9-1.4s0.9-0.7,1.4-0.9c0.5-0.2,1.1-0.3,1.7-0.3s1.2,0.1,1.7,0.3c0.5,0.2,1,0.5,1.4,0.9
				c0.4,0.4,0.7,0.8,0.9,1.4s0.3,1.1,0.3,1.7S30,7.1,29.8,7.6s-0.5,1-0.9,1.4c-0.4,0.4-0.9,0.7-1.4,0.9
				C26.9,10.1,26.3,10.2,25.7,10.2z M25.7,8.6c0.4,0,0.8-0.1,1.1-0.2c0.3-0.1,0.6-0.3,0.9-0.6s0.5-0.5,0.6-0.9
				c0.1-0.3,0.2-0.7,0.2-1.1s-0.1-0.7-0.2-1.1C28.2,4.5,28,4.2,27.7,4s-0.6-0.4-0.9-0.6c-0.3-0.1-0.7-0.2-1.1-0.2
				c-0.4,0-0.8,0.1-1.1,0.2C24.2,3.5,24,3.7,23.7,4s-0.5,0.5-0.6,0.9c-0.1,0.3-0.2,0.7-0.2,1.1S23,6.6,23.1,7
				c0.1,0.3,0.3,0.6,0.6,0.9s0.5,0.4,0.9,0.6C24.9,8.6,25.3,8.6,25.7,8.6z"/>
			<path d="M30.5,3.3h1.6l1.5,4.8l1.7-4.8H37l1.7,4.8l1.6-4.8h1.6l-2.4,6.9h-1.5l-1.7-4.8l-1.8,4.8h-1.6L30.5,3.3z"/>
			<path d="M42.5,3.3H44v0.9c0.2-0.3,0.5-0.5,0.9-0.7c0.4-0.2,0.8-0.3,1.2-0.3c0.9,0,1.5,0.3,2,0.8c0.5,0.5,0.7,1.2,0.7,2.1v4h-1.6
				V6.4c0-0.5-0.1-0.9-0.4-1.2s-0.6-0.5-1.2-0.5c-0.5,0-0.8,0.2-1.2,0.5S44,5.9,44,6.5v3.7h-1.6V3.3z"/>
			<path d="M52.7,3.3h1.6v0.9c0.2-0.3,0.5-0.5,0.9-0.7c0.4-0.2,0.8-0.3,1.2-0.3c0.9,0,1.5,0.3,2,0.8C58.8,4.6,59,5.3,59,6.2v4h-1.6
				V6.4c0-0.5-0.1-0.9-0.4-1.2s-0.6-0.5-1.2-0.5c-0.5,0-0.8,0.2-1.2,0.5s-0.5,0.8-0.5,1.4v3.7h-1.6V3.3z"/>
			<path d="M63.3,10.2c-0.5,0-1-0.1-1.4-0.3c-0.4-0.2-0.8-0.4-1.1-0.7c-0.3-0.3-0.6-0.7-0.8-1.1s-0.3-0.9-0.3-1.3
				c0-0.5,0.1-0.9,0.3-1.4c0.2-0.4,0.4-0.8,0.8-1.1c0.3-0.3,0.7-0.6,1.1-0.7c0.4-0.2,0.9-0.3,1.4-0.3c0.5,0,1,0.1,1.4,0.3
				c0.4,0.2,0.8,0.4,1.1,0.7c0.3,0.3,0.6,0.7,0.8,1.1c0.2,0.4,0.3,0.9,0.3,1.4c0,0.5-0.1,0.9-0.3,1.3s-0.4,0.8-0.8,1.1
				c-0.3,0.3-0.7,0.6-1.1,0.7C64.3,10.1,63.8,10.2,63.3,10.2z M63.3,8.7c0.3,0,0.5-0.1,0.8-0.2c0.2-0.1,0.5-0.2,0.6-0.4
				c0.2-0.2,0.3-0.4,0.4-0.6c0.1-0.2,0.2-0.5,0.2-0.8c0-0.3-0.1-0.5-0.2-0.8c-0.1-0.2-0.2-0.4-0.4-0.6c-0.2-0.2-0.4-0.3-0.6-0.4
				s-0.5-0.2-0.8-0.2c-0.3,0-0.5,0.1-0.8,0.2s-0.5,0.2-0.6,0.4c-0.2,0.2-0.3,0.4-0.4,0.6c-0.1,0.2-0.2,0.5-0.2,0.8
				c0,0.3,0.1,0.5,0.2,0.8c0.1,0.2,0.2,0.4,0.4,0.6c0.2,0.2,0.4,0.3,0.6,0.4C62.8,8.7,63,8.7,63.3,8.7z"/>
			<path d="M66.8,3.3h1.6L70,8.1l1.7-4.8h1.6L75,8.1l1.6-4.8h1.6l-2.4,6.9h-1.5l-1.7-4.8l-1.8,4.8h-1.6L66.8,3.3z"/>
			<path d="M84.9,10.2c-0.4,0-0.8-0.1-1.2-0.2c-0.4-0.2-0.8-0.4-1.1-0.7C82.2,9,82,8.7,81.8,8.2c-0.2-0.4-0.3-0.9-0.3-1.5
				c0-0.6,0.1-1,0.3-1.5c0.2-0.4,0.4-0.8,0.8-1.1s0.7-0.5,1.1-0.7c0.4-0.2,0.8-0.2,1.3-0.2c0.5,0,0.9,0.1,1.3,0.2s0.7,0.4,1,0.7V3.3
				h1.6v6.9h-1.6v-1c-0.3,0.3-0.6,0.6-1,0.7C85.8,10.1,85.3,10.2,84.9,10.2z M85.1,8.8c0.3,0,0.6-0.1,0.8-0.2s0.5-0.2,0.6-0.4
				c0.2-0.2,0.3-0.4,0.4-0.6s0.2-0.5,0.2-0.8c0-0.3-0.1-0.5-0.2-0.8c-0.1-0.2-0.3-0.5-0.4-0.6C86.4,5.1,86.2,5,86,4.9
				s-0.5-0.2-0.8-0.2c-0.3,0-0.6,0.1-0.8,0.2s-0.5,0.2-0.7,0.4c-0.2,0.2-0.3,0.4-0.4,0.6s-0.2,0.5-0.2,0.8c0,0.3,0.1,0.5,0.2,0.8
				c0.1,0.2,0.3,0.5,0.4,0.6c0.2,0.2,0.4,0.3,0.7,0.4S84.9,8.8,85.1,8.8z"/>
			<path d="M89.7,3.3h1.6v0.9c0.2-0.3,0.5-0.5,0.9-0.7c0.3-0.2,0.8-0.3,1.2-0.3c0.9,0,1.5,0.3,2,0.8c0.5,0.5,0.7,1.2,0.7,2.1v4h-1.6
				V6.4c0-0.5-0.1-0.9-0.4-1.2s-0.6-0.5-1.2-0.5c-0.5,0-0.8,0.2-1.2,0.5c-0.3,0.3-0.5,0.8-0.5,1.4v3.7h-1.6V3.3z"/>
			<path d="M100.2,10.2c-0.4,0-0.8-0.1-1.2-0.2c-0.4-0.2-0.8-0.4-1.1-0.7c-0.3-0.3-0.6-0.7-0.8-1.1c-0.2-0.4-0.3-0.9-0.3-1.5
				c0-0.6,0.1-1,0.3-1.5c0.2-0.4,0.4-0.8,0.8-1.1c0.3-0.3,0.7-0.5,1.1-0.7c0.4-0.2,0.8-0.2,1.3-0.2c0.4,0,0.9,0.1,1.3,0.3
				c0.4,0.2,0.7,0.4,1,0.7V1.5h1.6v8.7h-1.6v-1c-0.3,0.3-0.6,0.6-1,0.7C101.1,10.1,100.6,10.2,100.2,10.2z M100.4,8.8
				c0.3,0,0.6-0.1,0.8-0.2s0.5-0.2,0.6-0.4c0.2-0.2,0.3-0.4,0.4-0.6s0.2-0.5,0.2-0.8c0-0.3-0.1-0.5-0.2-0.8
				c-0.1-0.2-0.3-0.5-0.4-0.6c-0.2-0.2-0.4-0.3-0.6-0.4s-0.5-0.2-0.8-0.2c-0.3,0-0.6,0.1-0.8,0.2C99.4,5,99.1,5.1,99,5.3
				c-0.2,0.2-0.3,0.4-0.4,0.6s-0.2,0.5-0.2,0.8c0,0.3,0.1,0.5,0.2,0.8C98.6,7.8,98.8,8,99,8.2c0.2,0.2,0.4,0.3,0.7,0.4
				C99.9,8.7,100.1,8.8,100.4,8.8z"/>
		</g>
		<g class="st0">
			<path d="M3.9,25.2c-0.5,0-1-0.1-1.5-0.3c-0.4-0.2-0.8-0.4-1.2-0.7c-0.3-0.3-0.6-0.7-0.7-1.1c-0.2-0.4-0.3-0.9-0.3-1.3
				c0-0.5,0.1-0.9,0.3-1.4C0.7,20,1,19.6,1.3,19.3C1.6,19,2,18.7,2.4,18.6c0.4-0.2,0.9-0.3,1.4-0.3c0.5,0,1,0.1,1.4,0.2
				s0.8,0.4,1.1,0.7c0.3,0.3,0.6,0.7,0.7,1.1c0.2,0.4,0.3,0.8,0.3,1.3v0.6H1.8c0.1,0.5,0.4,0.9,0.7,1.2c0.4,0.3,0.8,0.4,1.4,0.4
				c0.4,0,0.8-0.1,1.2-0.3c0.3-0.2,0.6-0.5,0.7-0.9l1.3,0.8c-0.3,0.6-0.7,1-1.3,1.4C5.3,25.1,4.7,25.2,3.9,25.2z M3.8,19.7
				c-0.5,0-0.9,0.1-1.2,0.3c-0.4,0.2-0.6,0.5-0.7,0.8h3.9c-0.1-0.4-0.3-0.7-0.7-0.9C4.7,19.8,4.3,19.7,3.8,19.7z"/>
			<path d="M8.1,18.3h1.6v0.9c0.2-0.3,0.5-0.5,0.9-0.7c0.4-0.2,0.8-0.3,1.2-0.3c0.9,0,1.5,0.3,2,0.8c0.5,0.5,0.7,1.2,0.7,2.1v4h-1.6
				v-3.8c0-0.5-0.1-0.9-0.4-1.2s-0.6-0.5-1.2-0.5c-0.5,0-0.8,0.2-1.2,0.5s-0.5,0.8-0.5,1.4v3.7H8.1V18.3z"/>
			<path d="M14,26.9c0.3,0,0.6,0,0.7,0s0.3-0.1,0.4-0.2c0.1-0.1,0.2-0.2,0.2-0.4c0-0.2,0-0.4,0-0.7v-7.2H17v7.2c0,0.5,0,1-0.1,1.4
				c-0.1,0.4-0.3,0.7-0.5,0.9c-0.2,0.2-0.5,0.4-0.9,0.5s-0.8,0.1-1.3,0.1H14V26.9z M15.2,16.6c0-0.3,0.1-0.5,0.3-0.7
				c0.2-0.2,0.4-0.3,0.7-0.3c0.3,0,0.6,0.1,0.7,0.3c0.2,0.2,0.3,0.4,0.3,0.7s-0.1,0.5-0.3,0.7c-0.2,0.2-0.4,0.3-0.7,0.3
				c-0.3,0-0.6-0.1-0.7-0.3C15.3,17.2,15.2,16.9,15.2,16.6z"/>
			<path d="M21.3,25.2c-0.5,0-1-0.1-1.4-0.3c-0.4-0.2-0.8-0.4-1.1-0.7c-0.3-0.3-0.6-0.7-0.8-1.1s-0.3-0.9-0.3-1.3
				c0-0.5,0.1-0.9,0.3-1.4c0.2-0.4,0.4-0.8,0.8-1.1c0.3-0.3,0.7-0.6,1.1-0.7c0.4-0.2,0.9-0.3,1.4-0.3c0.5,0,1,0.1,1.4,0.3
				c0.4,0.2,0.8,0.4,1.1,0.7c0.3,0.3,0.6,0.7,0.8,1.1c0.2,0.4,0.3,0.9,0.3,1.4c0,0.5-0.1,0.9-0.3,1.3c-0.2,0.4-0.4,0.8-0.8,1.1
				c-0.3,0.3-0.7,0.6-1.1,0.7C22.2,25.1,21.8,25.2,21.3,25.2z M21.3,23.7c0.3,0,0.5-0.1,0.8-0.2c0.2-0.1,0.5-0.2,0.6-0.4
				c0.2-0.2,0.3-0.4,0.4-0.6c0.1-0.2,0.2-0.5,0.2-0.8c0-0.3-0.1-0.5-0.2-0.8c-0.1-0.2-0.2-0.4-0.4-0.6c-0.2-0.2-0.4-0.3-0.6-0.4
				c-0.2-0.1-0.5-0.2-0.8-0.2c-0.3,0-0.5,0.1-0.8,0.2s-0.5,0.2-0.6,0.4c-0.2,0.2-0.3,0.4-0.4,0.6c-0.1,0.2-0.2,0.5-0.2,0.8
				c0,0.3,0.1,0.5,0.2,0.8c0.1,0.2,0.2,0.4,0.4,0.6c0.2,0.2,0.4,0.3,0.6,0.4C20.7,23.7,21,23.7,21.3,23.7z"/>
			<path d="M27.4,24.9l-2.8-6.6h1.7l1.9,4.7l1.8-4.7h1.7l-4.1,10.1h-1.6L27.4,24.9z"/>
			<path d="M38.3,25.2c-0.4,0-0.8-0.1-1.2-0.2c-0.4-0.2-0.8-0.4-1.1-0.7c-0.3-0.3-0.6-0.7-0.8-1.1c-0.2-0.4-0.3-0.9-0.3-1.5
				c0-0.6,0.1-1,0.3-1.5s0.4-0.8,0.8-1.1c0.3-0.3,0.7-0.5,1.1-0.7c0.4-0.2,0.8-0.2,1.3-0.2c0.5,0,0.9,0.1,1.3,0.2s0.7,0.4,1,0.7
				v-0.9h1.6v6.9h-1.6v-1c-0.3,0.3-0.6,0.6-1,0.7C39.2,25.1,38.8,25.2,38.3,25.2z M38.6,23.8c0.3,0,0.6-0.1,0.8-0.2s0.5-0.2,0.6-0.4
				c0.2-0.2,0.3-0.4,0.4-0.6s0.2-0.5,0.2-0.8c0-0.3-0.1-0.5-0.2-0.8c-0.1-0.2-0.3-0.5-0.4-0.6c-0.2-0.2-0.4-0.3-0.6-0.4
				s-0.5-0.2-0.8-0.2c-0.3,0-0.6,0.1-0.8,0.2c-0.3,0.1-0.5,0.2-0.7,0.4c-0.2,0.2-0.3,0.4-0.4,0.6s-0.2,0.5-0.2,0.8
				c0,0.3,0.1,0.5,0.2,0.8c0.1,0.2,0.3,0.5,0.4,0.6c0.2,0.2,0.4,0.3,0.7,0.4C38,23.7,38.3,23.8,38.6,23.8z"/>
			<path d="M43.1,18.3h1.6v0.9c0.2-0.3,0.5-0.5,0.8-0.7c0.3-0.2,0.7-0.2,1.1-0.2c0.5,0,1,0.1,1.4,0.3c0.4,0.2,0.7,0.5,0.9,0.9
				c0.2-0.4,0.5-0.6,0.9-0.9c0.4-0.2,0.8-0.3,1.3-0.3c0.9,0,1.6,0.3,2.1,0.8c0.5,0.5,0.7,1.2,0.7,2.1v4.1h-1.6v-3.9
				c0-0.5-0.1-0.9-0.4-1.2c-0.3-0.3-0.6-0.4-1.1-0.4c-0.4,0-0.8,0.1-1.1,0.4c-0.3,0.3-0.4,0.7-0.4,1.3v3.8h-1.6v-4
				c0-0.5-0.1-0.9-0.4-1.1c-0.2-0.3-0.6-0.4-1.1-0.4c-0.4,0-0.8,0.2-1.1,0.5c-0.3,0.3-0.4,0.8-0.4,1.3v3.7h-1.6V18.3z"/>
			<path d="M58.1,25.2c-0.4,0-0.8-0.1-1.2-0.2c-0.4-0.2-0.8-0.4-1.1-0.7c-0.3-0.3-0.6-0.7-0.8-1.1c-0.2-0.4-0.3-0.9-0.3-1.5
				c0-0.6,0.1-1,0.3-1.5s0.4-0.8,0.8-1.1c0.3-0.3,0.7-0.5,1.1-0.7c0.4-0.2,0.8-0.2,1.3-0.2c0.5,0,0.9,0.1,1.3,0.2s0.7,0.4,1,0.7
				v-0.9h1.6v6.9h-1.6v-1c-0.3,0.3-0.6,0.6-1,0.7C59,25.1,58.5,25.2,58.1,25.2z M58.4,23.8c0.3,0,0.6-0.1,0.8-0.2s0.5-0.2,0.6-0.4
				c0.2-0.2,0.3-0.4,0.4-0.6s0.2-0.5,0.2-0.8c0-0.3-0.1-0.5-0.2-0.8c-0.1-0.2-0.3-0.5-0.4-0.6c-0.2-0.2-0.4-0.3-0.6-0.4
				s-0.5-0.2-0.8-0.2c-0.3,0-0.6,0.1-0.8,0.2c-0.3,0.1-0.5,0.2-0.7,0.4c-0.2,0.2-0.3,0.4-0.4,0.6s-0.2,0.5-0.2,0.8
				c0,0.3,0.1,0.5,0.2,0.8c0.1,0.2,0.3,0.5,0.4,0.6c0.2,0.2,0.4,0.3,0.7,0.4C57.8,23.7,58.1,23.8,58.4,23.8z"/>
			<path d="M62.7,23.8l4-4h-3.9v-1.4h6v1.5l-4,4h4.1v1.4h-6.2V23.8z"/>
			<path d="M69.5,16.6c0-0.3,0.1-0.5,0.3-0.7c0.2-0.2,0.4-0.3,0.7-0.3c0.3,0,0.6,0.1,0.7,0.3c0.2,0.2,0.3,0.4,0.3,0.7
				s-0.1,0.5-0.3,0.7c-0.2,0.2-0.4,0.3-0.7,0.3c-0.3,0-0.6-0.1-0.7-0.3C69.5,17.2,69.5,16.9,69.5,16.6z M69.7,18.3h1.6v6.9h-1.6
				V18.3z"/>
			<path d="M72.2,18.3h1.6v0.9c0.2-0.3,0.5-0.5,0.9-0.7c0.3-0.2,0.8-0.3,1.2-0.3c0.9,0,1.5,0.3,2,0.8c0.5,0.5,0.7,1.2,0.7,2.1v4H77
				v-3.8c0-0.5-0.1-0.9-0.4-1.2s-0.6-0.5-1.2-0.5c-0.5,0-0.8,0.2-1.2,0.5c-0.3,0.3-0.5,0.8-0.5,1.4v3.7h-1.6V18.3z"/>
			<path d="M84.9,24.2c-0.3,0.3-0.6,0.6-1,0.8c-0.4,0.2-0.8,0.3-1.3,0.3c-0.4,0-0.8-0.1-1.2-0.2c-0.4-0.2-0.8-0.4-1.1-0.7
				c-0.3-0.3-0.6-0.7-0.8-1.1c-0.2-0.4-0.3-0.9-0.3-1.5c0-0.6,0.1-1,0.3-1.5s0.4-0.8,0.8-1.1c0.3-0.3,0.7-0.5,1.1-0.7
				c0.4-0.2,0.8-0.2,1.3-0.2c0.5,0,0.9,0.1,1.3,0.3c0.4,0.2,0.7,0.4,1,0.7v-1h1.6v6.6c0,0.5-0.1,0.9-0.2,1.4
				c-0.2,0.4-0.4,0.8-0.7,1.1c-0.3,0.3-0.7,0.6-1.1,0.7s-1,0.3-1.5,0.3c-0.4,0-0.9,0-1.2-0.1c-0.4-0.1-0.7-0.2-1-0.4
				c-0.3-0.2-0.5-0.4-0.8-0.6c-0.2-0.2-0.4-0.5-0.6-0.8l1.4-0.9c0.3,0.5,0.5,0.8,0.9,1C82,26.8,82.4,27,83,27c0.3,0,0.6-0.1,0.8-0.2
				c0.2-0.1,0.5-0.3,0.6-0.4c0.2-0.2,0.3-0.4,0.4-0.6c0.1-0.2,0.1-0.5,0.1-0.8V24.2z M82.9,23.8c0.3,0,0.6-0.1,0.8-0.2
				s0.5-0.2,0.6-0.4c0.2-0.2,0.3-0.4,0.4-0.6S85,22,85,21.7c0-0.3-0.1-0.5-0.2-0.8c-0.1-0.2-0.3-0.5-0.4-0.6
				c-0.2-0.2-0.4-0.3-0.6-0.4s-0.5-0.2-0.8-0.2c-0.3,0-0.6,0.1-0.8,0.2s-0.5,0.2-0.7,0.4c-0.2,0.2-0.3,0.4-0.4,0.6
				c-0.1,0.2-0.2,0.5-0.2,0.8c0,0.3,0.1,0.5,0.2,0.8c0.1,0.2,0.3,0.5,0.4,0.6c0.2,0.2,0.4,0.3,0.7,0.4S82.6,23.8,82.9,23.8z"/>
			<path d="M93.7,25.2c-0.5,0-1-0.1-1.4-0.3c-0.4-0.2-0.8-0.4-1.1-0.7c-0.3-0.3-0.6-0.7-0.8-1.1c-0.2-0.4-0.3-0.9-0.3-1.3
				c0-0.5,0.1-0.9,0.3-1.4c0.2-0.4,0.4-0.8,0.8-1.1c0.3-0.3,0.7-0.6,1.1-0.7c0.4-0.2,0.9-0.3,1.4-0.3s1,0.1,1.4,0.3
				c0.4,0.2,0.8,0.4,1.1,0.7c0.3,0.3,0.6,0.7,0.8,1.1c0.2,0.4,0.3,0.9,0.3,1.4c0,0.5-0.1,0.9-0.3,1.3c-0.2,0.4-0.4,0.8-0.8,1.1
				c-0.3,0.3-0.7,0.6-1.1,0.7C94.6,25.1,94.2,25.2,93.7,25.2z M93.7,23.7c0.3,0,0.5-0.1,0.8-0.2c0.2-0.1,0.5-0.2,0.6-0.4
				c0.2-0.2,0.3-0.4,0.4-0.6c0.1-0.2,0.2-0.5,0.2-0.8c0-0.3-0.1-0.5-0.2-0.8c-0.1-0.2-0.2-0.4-0.4-0.6c-0.2-0.2-0.4-0.3-0.6-0.4
				s-0.5-0.2-0.8-0.2s-0.5,0.1-0.8,0.2s-0.5,0.2-0.6,0.4c-0.2,0.2-0.3,0.4-0.4,0.6s-0.2,0.5-0.2,0.8c0,0.3,0.1,0.5,0.2,0.8
				c0.1,0.2,0.2,0.4,0.4,0.6c0.2,0.2,0.4,0.3,0.6,0.4C93.1,23.7,93.4,23.7,93.7,23.7z"/>
			<path d="M97.5,18.3h1.2v0c0-0.5,0.1-0.9,0.2-1.3c0.1-0.3,0.3-0.6,0.5-0.9c0.2-0.2,0.5-0.4,0.9-0.5c0.4-0.1,0.8-0.2,1.3-0.2h0.1
				V17c-0.3,0-0.6,0-0.8,0.1c-0.2,0-0.3,0.1-0.4,0.2c-0.1,0.1-0.2,0.2-0.2,0.4c0,0.2,0,0.4,0,0.6h1.4v1.4h-1.4v5.5h-1.6v-5.5h-1.2
				V18.3z"/>
			<path d="M102.1,18.3h1.2v0c0-0.5,0.1-0.9,0.2-1.3c0.1-0.3,0.3-0.6,0.5-0.9c0.2-0.2,0.5-0.4,0.9-0.5c0.4-0.1,0.8-0.2,1.3-0.2h0.1
				V17c-0.3,0-0.6,0-0.8,0.1c-0.2,0-0.3,0.1-0.4,0.2c-0.1,0.1-0.2,0.2-0.2,0.4c0,0.2,0,0.4,0,0.6h1.4v1.4h-1.4v5.5h-1.6v-5.5h-1.2
				V18.3z"/>
			<path d="M110.1,25.2c-0.5,0-1-0.1-1.5-0.3c-0.4-0.2-0.8-0.4-1.2-0.7c-0.3-0.3-0.6-0.7-0.7-1.1c-0.2-0.4-0.3-0.9-0.3-1.3
				c0-0.5,0.1-0.9,0.3-1.4c0.2-0.4,0.4-0.8,0.8-1.1c0.3-0.3,0.7-0.6,1.1-0.7c0.4-0.2,0.9-0.3,1.4-0.3c0.5,0,1,0.1,1.4,0.2
				s0.8,0.4,1.1,0.7c0.3,0.3,0.6,0.7,0.7,1.1c0.2,0.4,0.3,0.8,0.3,1.3v0.6H108c0.1,0.5,0.4,0.9,0.7,1.2c0.4,0.3,0.8,0.4,1.4,0.4
				c0.4,0,0.8-0.1,1.2-0.3c0.3-0.2,0.6-0.5,0.7-0.9l1.3,0.8c-0.3,0.6-0.7,1-1.3,1.4C111.5,25.1,110.9,25.2,110.1,25.2z M110,19.7
				c-0.5,0-0.9,0.1-1.2,0.3c-0.4,0.2-0.6,0.5-0.7,0.8h3.9c-0.1-0.4-0.3-0.7-0.7-0.9C110.9,19.8,110.5,19.7,110,19.7z"/>
			<path d="M114.3,18.3h1.6v1c0.3-0.7,0.9-1,1.8-1c0.3,0,0.5,0,0.7,0.1c0.2,0.1,0.4,0.1,0.5,0.2l-0.6,1.5c-0.1-0.1-0.3-0.1-0.4-0.2
				c-0.1-0.1-0.3-0.1-0.6-0.1c-0.5,0-0.8,0.1-1.1,0.4s-0.4,0.7-0.4,1.3v3.7h-1.6V18.3z"/>
			<path d="M121.9,25.2c-0.8,0-1.4-0.1-1.9-0.4s-0.9-0.7-1.2-1.2l1.5-0.7c0.2,0.3,0.4,0.5,0.7,0.7c0.3,0.2,0.6,0.2,1,0.2
				c0.4,0,0.7-0.1,0.9-0.2c0.2-0.2,0.3-0.3,0.3-0.6c0-0.1,0-0.2-0.1-0.3s-0.2-0.1-0.4-0.2s-0.3-0.1-0.5-0.1s-0.4-0.1-0.6-0.1
				c-0.3-0.1-0.6-0.1-0.9-0.2c-0.3-0.1-0.5-0.2-0.8-0.3c-0.2-0.1-0.4-0.3-0.6-0.6s-0.2-0.5-0.2-0.9c0-0.3,0.1-0.5,0.2-0.8
				c0.1-0.2,0.3-0.5,0.5-0.6s0.5-0.3,0.9-0.4c0.3-0.1,0.7-0.2,1.1-0.2c0.7,0,1.3,0.1,1.7,0.4c0.5,0.3,0.8,0.6,1.1,1l-1.4,0.6
				c-0.1-0.2-0.3-0.4-0.6-0.5c-0.3-0.1-0.5-0.2-0.9-0.2c-0.4,0-0.7,0.1-0.8,0.2s-0.3,0.3-0.3,0.5c0,0.2,0.1,0.4,0.4,0.5
				s0.7,0.2,1.2,0.3c0.3,0.1,0.6,0.1,0.9,0.2c0.3,0.1,0.5,0.2,0.8,0.3c0.2,0.1,0.4,0.3,0.6,0.6c0.1,0.2,0.2,0.5,0.2,0.9
				c0,0.2-0.1,0.5-0.2,0.7c-0.1,0.3-0.3,0.5-0.5,0.7s-0.5,0.4-0.9,0.5C122.8,25.2,122.4,25.2,121.9,25.2z"/>
		</g>
	</g>
</g>
</svg>
