<?xml version="1.0" encoding="utf-8"?>
<!-- Generator: Adobe Illustrator 24.0.1, SVG Export Plug-In . SVG Version: 6.00 Build 0)  -->
<svg version="1.1" id="Layer_1" xmlns="http://www.w3.org/2000/svg" xmlns:xlink="http://www.w3.org/1999/xlink" x="0px" y="0px"
	 viewBox="0 0 210 25.3" style="enable-background:new 0 0 210 25.3;" xml:space="preserve">
<style type="text/css">
	.st0{enable-background:new    ;}
</style>
<title>S21 Ultra 5G</title>
<g id="Layer_2_1_">
	<g id="Layer_2-2">
		<g class="st0">
			<path d="M8.8,19.1c-1.2,0-2.4-0.2-3.4-0.6c-1-0.4-1.9-1-2.6-1.8c-0.7-0.7-1.3-1.6-1.7-2.6c-0.4-1-0.6-2-0.6-3.1
				c0-1.1,0.2-2.2,0.6-3.1c0.4-1,1-1.8,1.7-2.6S4.4,4,5.4,3.6C6.4,3.2,7.5,3,8.7,3c0.8,0,1.6,0.1,2.4,0.3c0.7,0.2,1.4,0.5,2,0.8
				s1.2,0.8,1.7,1.3c0.5,0.5,0.9,1,1.2,1.6l-2.6,1.4c-0.5-0.8-1.1-1.5-1.9-1.9S9.8,5.9,8.7,5.9C8,5.9,7.3,6,6.6,6.3
				C6,6.5,5.4,6.9,5,7.4S4.1,8.4,3.9,9s-0.4,1.3-0.4,2c0,0.7,0.1,1.4,0.4,2s0.6,1.2,1.1,1.6c0.5,0.5,1,0.8,1.7,1.1s1.4,0.4,2.2,0.4
				c1.2,0,2.2-0.3,3-0.9c0.8-0.6,1.3-1.5,1.6-2.5H8.3V9.8h8.3V11c0,1.1-0.2,2.1-0.6,3.1c-0.4,1-0.9,1.8-1.6,2.6s-1.5,1.3-2.5,1.8
				C11.1,18.9,10,19.1,8.8,19.1z"/>
			<path d="M24.2,19.1c-0.8,0-1.5-0.1-2.3-0.4c-0.8-0.3-1.4-0.7-2-1.3c-0.6-0.6-1.1-1.2-1.5-2c-0.4-0.8-0.6-1.7-0.6-2.7
				c0-1,0.2-1.9,0.5-2.7c0.4-0.8,0.8-1.5,1.4-2s1.3-1,2-1.3c0.8-0.3,1.6-0.4,2.4-0.4c0.9,0,1.6,0.2,2.4,0.5c0.7,0.3,1.3,0.7,1.8,1.3
				V6.2h3V19h-3v-1.8c-0.5,0.6-1.1,1-1.8,1.4S25,19.1,24.2,19.1z M24.7,16.3c0.6,0,1.1-0.1,1.5-0.3c0.5-0.2,0.9-0.5,1.2-0.8
				c0.3-0.3,0.6-0.7,0.8-1.2s0.3-0.9,0.3-1.5c0-0.5-0.1-1-0.3-1.4s-0.5-0.9-0.8-1.2c-0.3-0.3-0.7-0.6-1.2-0.8
				c-0.5-0.2-1-0.3-1.5-0.3c-0.5,0-1.1,0.1-1.5,0.3c-0.5,0.2-0.9,0.5-1.2,0.8c-0.4,0.3-0.6,0.7-0.8,1.2c-0.2,0.5-0.3,0.9-0.3,1.5
				c0,0.5,0.1,1,0.3,1.5c0.2,0.5,0.5,0.9,0.8,1.2c0.4,0.3,0.8,0.6,1.2,0.8C23.6,16.2,24.1,16.3,24.7,16.3z"/>
			<path d="M33,2.8h3V19h-3V2.8z"/>
			<path d="M43.7,19.1c-0.8,0-1.5-0.1-2.3-0.4c-0.8-0.3-1.4-0.7-2-1.3c-0.6-0.6-1.1-1.2-1.5-2c-0.4-0.8-0.6-1.7-0.6-2.7
				c0-1,0.2-1.9,0.5-2.7c0.4-0.8,0.8-1.5,1.4-2s1.3-1,2-1.3c0.8-0.3,1.6-0.4,2.4-0.4c0.9,0,1.6,0.2,2.4,0.5c0.7,0.3,1.3,0.7,1.8,1.3
				V6.2h3V19h-3v-1.8c-0.5,0.6-1.1,1-1.8,1.4S44.5,19.1,43.7,19.1z M44.1,16.3c0.6,0,1.1-0.1,1.5-0.3c0.5-0.2,0.9-0.5,1.2-0.8
				c0.3-0.3,0.6-0.7,0.8-1.2s0.3-0.9,0.3-1.5c0-0.5-0.1-1-0.3-1.4s-0.5-0.9-0.8-1.2c-0.3-0.3-0.7-0.6-1.2-0.8
				c-0.5-0.2-1-0.3-1.5-0.3c-0.5,0-1.1,0.1-1.5,0.3c-0.5,0.2-0.9,0.5-1.2,0.8c-0.4,0.3-0.6,0.7-0.8,1.2c-0.2,0.5-0.3,0.9-0.3,1.5
				c0,0.5,0.1,1,0.3,1.5c0.2,0.5,0.5,0.9,0.8,1.2c0.4,0.3,0.8,0.6,1.2,0.8C43.1,16.2,43.6,16.3,44.1,16.3z"/>
			<path d="M56.4,12.5l-4.7-6.3h3.6l2.9,4.1l2.9-4.1h3.5l-4.6,6.4L65,19h-3.6l-3.1-4.3L55.2,19h-3.6L56.4,12.5z"/>
			<path d="M70.4,18.5L65.1,6.2h3.2l3.6,8.8l3.4-8.8h3.1L70.7,25h-3L70.4,18.5z"/>
			<path d="M90.3,19.1c-1.5,0-2.7-0.3-3.7-0.8c-1-0.5-1.9-1.2-2.6-2.1l2.7-2.1c0.4,0.7,0.9,1.2,1.5,1.5c0.6,0.4,1.3,0.5,2,0.5
				c0.8,0,1.4-0.2,1.8-0.6c0.4-0.4,0.6-0.9,0.6-1.5c0-0.3-0.1-0.6-0.3-0.8s-0.4-0.4-0.7-0.6s-0.7-0.3-1.1-0.4
				c-0.4-0.1-0.8-0.3-1.2-0.4c-0.5-0.2-1.1-0.4-1.6-0.6c-0.5-0.2-1-0.5-1.5-0.8c-0.4-0.3-0.8-0.7-1.1-1.2c-0.3-0.5-0.4-1.1-0.4-1.8
				c0-0.6,0.1-1.2,0.4-1.8c0.3-0.5,0.6-1,1.1-1.4s1-0.7,1.7-1C88.7,3.1,89.4,3,90.1,3c0.6,0,1.2,0.1,1.8,0.2c0.5,0.1,1,0.3,1.4,0.5
				c0.4,0.2,0.8,0.5,1.2,0.7c0.4,0.3,0.7,0.6,1,0.9l-2.5,1.9c-0.7-1.1-1.7-1.6-2.9-1.6c-0.7,0-1.3,0.2-1.7,0.5
				c-0.4,0.3-0.6,0.8-0.6,1.3c0,0.3,0.1,0.6,0.3,0.8c0.2,0.2,0.4,0.4,0.7,0.6c0.3,0.2,0.6,0.3,1,0.4c0.4,0.1,0.8,0.3,1.3,0.4
				c0.5,0.2,1.1,0.4,1.6,0.6c0.6,0.2,1,0.5,1.5,0.9s0.8,0.8,1.1,1.3c0.3,0.5,0.4,1.1,0.4,1.9c0,0.6-0.1,1.2-0.4,1.8
				c-0.3,0.6-0.6,1.1-1.1,1.6c-0.5,0.4-1,0.8-1.7,1.1C92,18.9,91.2,19.1,90.3,19.1z"/>
			<path d="M97.2,16.3c0-0.7,0.1-1.3,0.4-1.8s0.6-1.1,1-1.5c0.4-0.5,0.9-0.9,1.4-1.2c0.5-0.4,1-0.7,1.5-1.1c0.4-0.3,0.8-0.5,1.1-0.8
				c0.4-0.3,0.7-0.5,1-0.8c0.3-0.3,0.5-0.5,0.7-0.8c0.2-0.3,0.3-0.6,0.3-0.9c0-0.5-0.2-1-0.6-1.3c-0.4-0.4-0.9-0.6-1.6-0.6
				c-0.7,0-1.3,0.2-1.7,0.7c-0.4,0.4-0.8,1-1.1,1.7l-2.6-1.3c0.5-1.1,1.2-2,2.1-2.7c0.9-0.7,2-1,3.3-1c0.8,0,1.6,0.1,2.2,0.3
				s1.2,0.5,1.6,0.9c0.5,0.4,0.8,0.9,1,1.4c0.2,0.5,0.4,1.1,0.4,1.7c0,0.6-0.1,1.2-0.4,1.7c-0.2,0.5-0.5,1-0.9,1.4
				c-0.4,0.4-0.8,0.8-1.3,1.1c-0.5,0.3-1,0.7-1.4,1c-0.4,0.3-0.8,0.5-1.2,0.8s-0.7,0.5-1.1,0.8c-0.3,0.3-0.6,0.6-0.7,0.9
				c-0.2,0.3-0.3,0.7-0.3,1h7.2V19H97.2V16.3z"/>
			<path d="M110.9,19V5.8h-2V3h5V19H110.9z"/>
			<path d="M127.5,19.1c-0.8,0-1.6-0.1-2.3-0.4c-0.7-0.2-1.3-0.6-1.8-1.1c-0.5-0.5-0.9-1.1-1.2-1.8c-0.3-0.7-0.4-1.5-0.4-2.5V3h3
				v10.5c0,0.4,0.1,0.8,0.2,1.1c0.1,0.3,0.3,0.6,0.6,0.9c0.2,0.2,0.5,0.4,0.9,0.6c0.3,0.1,0.7,0.2,1.1,0.2c0.4,0,0.8-0.1,1.1-0.2
				c0.3-0.1,0.6-0.3,0.9-0.6c0.3-0.2,0.5-0.5,0.6-0.9c0.1-0.3,0.2-0.7,0.2-1.1V3h3v10.4c0,0.9-0.1,1.7-0.4,2.5
				c-0.3,0.7-0.7,1.3-1.2,1.8s-1.1,0.8-1.8,1.1S128.4,19.1,127.5,19.1z"/>
			<path d="M135.1,2.8h3V19h-3V2.8z"/>
			<path d="M139.3,6.2h2.2v-2l3-2v4h2.6v2.7h-2.6v4.8c0,0.6,0,1,0.1,1.4c0.1,0.3,0.2,0.6,0.4,0.8s0.4,0.3,0.8,0.4
				c0.3,0.1,0.8,0.1,1.4,0.1V19h-0.4c-1,0-1.8-0.1-2.5-0.3c-0.7-0.2-1.2-0.5-1.6-0.9c-0.4-0.4-0.7-1-0.8-1.7
				c-0.2-0.7-0.3-1.5-0.3-2.6V8.8h-2.2V6.2z"/>
			<path d="M148.6,6.2h3v1.9c0.6-1.3,1.7-1.9,3.3-1.9c0.5,0,0.9,0.1,1.3,0.2s0.7,0.2,1,0.4L156,9.5c-0.2-0.1-0.5-0.3-0.7-0.4
				s-0.6-0.1-1-0.1c-0.9,0-1.5,0.2-2,0.7c-0.4,0.5-0.7,1.3-0.7,2.4V19h-3V6.2z"/>
			<path d="M163.6,19.1c-0.8,0-1.5-0.1-2.3-0.4c-0.8-0.3-1.4-0.7-2-1.3s-1.1-1.2-1.5-2c-0.4-0.8-0.6-1.7-0.6-2.7
				c0-1,0.2-1.9,0.5-2.7s0.8-1.5,1.4-2s1.3-1,2-1.3s1.6-0.4,2.4-0.4c0.9,0,1.6,0.2,2.4,0.5c0.7,0.3,1.3,0.7,1.8,1.3V6.2h3V19h-3
				v-1.8c-0.5,0.6-1.1,1-1.8,1.4S164.4,19.1,163.6,19.1z M164,16.3c0.6,0,1.1-0.1,1.5-0.3c0.5-0.2,0.9-0.5,1.2-0.8s0.6-0.7,0.8-1.2
				c0.2-0.5,0.3-0.9,0.3-1.5c0-0.5-0.1-1-0.3-1.4c-0.2-0.5-0.5-0.9-0.8-1.2s-0.7-0.6-1.2-0.8c-0.5-0.2-1-0.3-1.5-0.3
				c-0.5,0-1.1,0.1-1.5,0.3c-0.5,0.2-0.9,0.5-1.2,0.8s-0.6,0.7-0.8,1.2c-0.2,0.5-0.3,0.9-0.3,1.5c0,0.5,0.1,1,0.3,1.5
				c0.2,0.5,0.5,0.9,0.8,1.2s0.8,0.6,1.2,0.8C163,16.2,163.5,16.3,164,16.3z"/>
			<path d="M182.9,19.1c-0.7,0-1.3-0.1-1.9-0.3c-0.6-0.2-1.1-0.4-1.6-0.7s-0.9-0.6-1.2-1c-0.3-0.4-0.6-0.8-0.8-1.2l2.8-1.6
				c0.2,0.5,0.6,1,1,1.4c0.4,0.4,1,0.6,1.7,0.6c0.3,0,0.6-0.1,0.9-0.2c0.3-0.1,0.6-0.3,0.8-0.5c0.2-0.2,0.4-0.5,0.5-0.8
				c0.1-0.3,0.2-0.7,0.2-1c0-0.7-0.2-1.4-0.7-1.9c-0.4-0.5-1.1-0.8-1.9-0.8c-0.6,0-1.1,0.2-1.6,0.5s-0.7,0.7-1,1.2l-2.7-1.4l1.1-8.4
				h8.9v2.8h-6.6l-0.5,3.4c0.3-0.2,0.7-0.4,1.1-0.5s0.9-0.2,1.4-0.2c0.7,0,1.4,0.1,2,0.4c0.6,0.2,1.2,0.6,1.7,1s0.9,1,1.1,1.7
				c0.3,0.7,0.4,1.4,0.4,2.3c0,0.8-0.1,1.5-0.4,2.1c-0.3,0.7-0.7,1.2-1.1,1.7c-0.5,0.5-1.1,0.8-1.8,1.1
				C184.4,18.9,183.7,19.1,182.9,19.1z"/>
			<path d="M197.7,19.1c-1.2,0-2.4-0.2-3.4-0.6c-1-0.4-1.9-1-2.6-1.8c-0.7-0.7-1.3-1.6-1.7-2.6s-0.6-2-0.6-3.1
				c0-1.1,0.2-2.2,0.6-3.1s1-1.8,1.7-2.6s1.6-1.3,2.6-1.7c1-0.4,2.1-0.6,3.3-0.6c0.8,0,1.6,0.1,2.4,0.3c0.7,0.2,1.4,0.5,2,0.8
				c0.6,0.4,1.2,0.8,1.7,1.3c0.5,0.5,0.9,1,1.2,1.6l-2.6,1.4c-0.5-0.8-1.1-1.5-1.9-1.9s-1.7-0.6-2.7-0.6c-0.7,0-1.4,0.1-2.1,0.4
				c-0.6,0.3-1.2,0.6-1.7,1.1s-0.8,1-1.1,1.6c-0.3,0.6-0.4,1.3-0.4,2c0,0.7,0.1,1.4,0.4,2c0.3,0.6,0.6,1.2,1.1,1.6
				c0.5,0.5,1,0.8,1.7,1.1c0.7,0.3,1.4,0.4,2.2,0.4c1.2,0,2.2-0.3,3-0.9c0.8-0.6,1.3-1.5,1.6-2.5h-5.1V9.8h8.3V11
				c0,1.1-0.2,2.1-0.5,3.1c-0.4,1-0.9,1.8-1.6,2.6c-0.7,0.7-1.5,1.3-2.5,1.8C200,18.9,198.9,19.1,197.7,19.1z"/>
		</g>
	</g>
</g>
</svg>
